<svg width="123" height="30" viewBox="0 0 123 30" fill="none" xmlns="http://www.w3.org/2000/svg">
<g clip-path="url(#clip0_1_2)">
<path d="M4.4 8.89999H0.5V23.8H4.4V8.89999Z" fill="#34A736"/>
<path d="M28.5 7.49999V8.89999H25.9V10.9H28.5V23.7H32.4V10.9H37.1V8.89999H32.4V7.19999C32.4 4.99999 33.5 3.59999 35.2 3.59999C36.9 3.59999 36.9 3.89999 37.8 4.39999L38.6 2.59999C37.2 1.79999 35.7 1.39999 34.3 1.39999C30.8 1.39999 28.5 3.89999 28.5 7.59999" fill="#34A736"/>
<path d="M102.6 21.9C101.3 21.9 100.4 20.9 100.4 19.3V10.9H105.1V8.89999H100.4V4.29999H96.5V8.89999H93.9V10.9H96.5V19.3C96.5 22.2 98.5 24.2 101.4 24.2C104.3 24.2 104.3 23.7 105.7 23L104.8 21.1C104 21.6 103.3 21.9 102.6 21.9Z" fill="#34A736"/>
<path d="M2.5 2.09999C1.2 2.09999 0.299999 3.09999 0.299999 4.29999C0.299999 5.49999 1.3 6.49999 2.5 6.49999C3.7 6.49999 4.7 5.49999 4.7 4.29999C4.7 3.09999 3.7 2.09999 2.5 2.09999Z" fill="#34A736"/>
<path d="M91.3 8.89999H87.4V23.8H91.3V8.89999Z" fill="#34A736"/>
<path d="M89.3 2.10001C88.1 2.10001 87.1 3.10001 87.1 4.30001C87.1 5.50001 88.1 6.50001 89.3 6.50001C90.5 6.50001 91.5 5.50001 91.5 4.30001C91.5 3.10001 90.5 2.10001 89.3 2.10001Z" fill="#34A736"/>
<path d="M17.9 8.40001C15.2 8.40001 13.2 9.60001 11.1 12.9L10.6 12.4C11.4 11.4 11.7 10.2 11.7 8.80001H8.9V23.7H12.8V12.7C14.1 11 15.5 10.3 16.9 10.3C18.9 10.3 20 11.8 20 14V23.7H23.9V14C23.9 10.6 21.7 8.40001 18 8.40001" fill="#34A736"/>
<path d="M77 8.40001C74.3 8.40001 72.3 9.60001 70.2 12.9L69.7 12.4C70.5 11.4 70.9 10.2 70.9 8.80001H68.1V23.7H72V12.7C73.3 11 74.7 10.3 76.1 10.3C78.1 10.3 79.2 11.8 79.2 14V23.7H83.1V14C83.1 10.6 80.9 8.40001 77.2 8.40001" fill="#34A736"/>
<path d="M48.4 8.40001C45.7 8.40001 43.7 9.60001 41.6 12.9L41.1 12.4C41.9 11.4 42.3 10.2 42.3 8.80001H39.5V23.7H43.4V12.7C44.8 11 46.8 10.8 48.9 11.6L49.7 8.50001C49.3 8.50001 48.9 8.50001 48.5 8.50001" fill="#34A736"/>
<path d="M59.7 19.9C58.8 21.4 57.6 22.1 56.3 22.1C55 22.1 53.4 21.1 53.4 19.5C53.4 17.9 54.9 16.2 56.7 16.2C58.5 16.2 58.7 16.5 59.7 17.1V19.8V19.9ZM56.7 8.40001C54.5 8.40001 52.5 9.00001 50.8 10L51.6 11.8C52.9 10.9 54.6 10.4 56.1 10.4C58.4 10.4 59.7 11.6 59.7 13.8V15.3C58.4 14.7 57 14.4 55.7 14.4C52.4 14.4 49.4 16.2 49.4 19.4C49.4 22.6 51.7 24.1 54.8 24.1C57.9 24.1 59.3 22.9 61.4 19.6L61.9 20.1C61.1 21.1 60.7 22.3 60.7 23.7H63.5V13.6C63.5 10.5 60.7 8.40001 56.6 8.40001" fill="#34A736"/>
<path d="M118.5 8.90001V19.7C117.8 21.1 116.3 22 114.9 22C113.5 22 111.8 20.6 111.8 18.6V8.90001H107.9V18.6C107.9 22 110.2 24.2 113.8 24.2C117.4 24.2 117.5 23.4 118.5 21.7V23.1C118.5 26 116.8 27.7 114 27.7C111.2 27.7 110.9 27.2 109.5 26L108.7 27.8C110.4 29 112.5 29.7 114.6 29.7C119.2 29.7 122.4 26.8 122.4 22.7V8.90001H118.5Z" fill="#34A736"/>
</g>
<defs>
<clipPath id="clip0_1_2">
<rect width="122.8" height="30" fill="white"/>
</clipPath>
</defs>
</svg>
