<?xml version="1.0" encoding="UTF-8"?>
<svg id="Layer_1" xmlns="http://www.w3.org/2000/svg" version="1.1" viewBox="0 0 130 30.2">
  <!-- Generator: Adobe Illustrator 29.0.0, SVG Export Plug-In . SVG Version: 2.1.0 Build 186)  -->
  <defs>
    <style>
      .st0 {
        fill: #00ab18;
      }
    </style>
  </defs>
  <rect class="st0" x=".3" y="8" width="4.1" height="15.8"/>
  <g>
    <path class="st0" d="M30.1,6.6v1.5h-2.7v2.2h2.7v13.7h4.1v-13.7h5v-2.2h-5v-1.8c0-2.3,1.2-3.8,3-3.8s1.8.3,2.7.8l.9-1.9c-1.5-.9-3.1-1.3-4.6-1.3-3.7,0-6.2,2.7-6.2,6.6"/>
    <path class="st0" d="M109,21.9c-1.4,0-2.4-1.1-2.4-2.7v-8.9h5v-2.2h-5V3.2h-4.1v4.9h-2.7v2.2h2.7v9c0,3.1,2.1,5.2,5.2,5.2s3.1-.5,4.6-1.3l-1-2c-.9.6-1.6.8-2.3.8"/>
    <path class="st0" d="M2.3.8C1.1.8,0,1.9,0,3.2s1.1,2.3,2.3,2.3,2.3-1.1,2.3-2.3S3.6.8,2.3.8"/>
  </g>
  <rect class="st0" x="92.8" y="8" width="4.1" height="15.8"/>
  <g>
    <path class="st0" d="M94.8.8c-1.3,0-2.3,1.1-2.3,2.3s1.1,2.3,2.3,2.3,2.3-1.1,2.3-2.3-1-2.3-2.3-2.3"/>
    <path class="st0" d="M18.8,7.6c-2.9,0-5,1.3-7.3,4.8l-.5-.5c.8-1.1,1.2-2.4,1.2-3.8h-3v15.8h4.1v-11.7c1.4-1.8,2.8-2.5,4.3-2.5,2.2,0,3.3,1.6,3.3,3.9v10.3h4.1v-10.4c0-3.6-2.3-6-6.2-6"/>
    <path class="st0" d="M81.7,7.6c-2.9,0-5,1.3-7.3,4.8l-.5-.5c.8-1.1,1.2-2.4,1.2-3.8h-3v15.8h4.1v-11.7c1.4-1.8,2.8-2.5,4.3-2.5,2.2,0,3.3,1.6,3.3,3.9v10.3h4.1v-10.4c0-3.6-2.3-6-6.2-6"/>
    <path class="st0" d="M51.3,7.5c-2.9,0-5,1.3-7.3,4.8l-.5-.5c.8-1.1,1.2-2.4,1.2-3.8h-3v15.8h4.1v-11.7c1.5-1.8,3.7-2,5.9-1.2l.8-3.3c-.4,0-.8,0-1.2,0"/>
    <path class="st0" d="M63.3,19.8c-.9,1.5-2.2,2.3-3.6,2.3s-3.1-1-3.1-2.7,1.5-3.5,3.5-3.5,2.1.3,3.2.9v2.9ZM60.1,7.6c-2.3,0-4.5.6-6.3,1.7l.9,1.9c1.4-.9,3.2-1.4,4.8-1.4,2.4,0,3.8,1.3,3.8,3.7v1.6c-1.3-.6-2.8-.9-4.2-.9-3.5,0-6.7,1.9-6.7,5.3s2.4,5,5.8,5,4.8-1.3,7-4.8l.5.5c-.8,1.1-1.2,2.4-1.2,3.8h3v-10.8c0-3.3-3-5.5-7.3-5.5"/>
    <path class="st0" d="M125.9,8v11.5c-.8,1.5-2.3,2.4-3.8,2.4s-3.3-1.5-3.3-3.6v-10.3h-4.1v10.3c0,3.6,2.5,6,6.2,6s3.9-.9,5-2.7v1.4c0,3.1-1.8,5-4.8,5s-3.3-.6-4.8-1.8l-.9,1.9c1.8,1.3,4,2,6.3,2,4.9,0,8.3-3.1,8.3-7.5v-14.7h-4.1Z"/>
  </g>
</svg>