<?xml version="1.0" encoding="UTF-8"?>
<svg id="Layer_1" xmlns="http://www.w3.org/2000/svg" version="1.1" viewBox="0 0 122.8 30">
  <!-- Generator: Adobe Illustrator 29.0.0, SVG Export Plug-In . SVG Version: 2.1.0 Build 186)  -->
  <defs>
    <style>
      .st0 {
        fill: #34a736;
      }
    </style>
  </defs>
  <rect class="st0" x=".5" y="8.9" width="3.9" height="14.9"/>
  <g>
    <path class="st0" d="M28.5,7.5v1.4h-2.6v2h2.6v12.8h3.9v-12.8h4.7v-2h-4.7v-1.7c0-2.2,1.1-3.6,2.8-3.6s1.7.3,2.6.8l.8-1.8c-1.4-.8-2.9-1.2-4.3-1.2-3.5,0-5.8,2.5-5.8,6.2"/>
    <path class="st0" d="M102.6,21.9c-1.3,0-2.2-1-2.2-2.6v-8.4h4.7v-2h-4.7v-4.6h-3.9v4.6h-2.6v2h2.6v8.4c0,2.9,2,4.9,4.9,4.9s2.9-.5,4.3-1.2l-.9-1.9c-.8.5-1.5.8-2.2.8"/>
    <path class="st0" d="M2.5,2.1C1.2,2.1.3,3.1.3,4.3s1,2.2,2.2,2.2,2.2-1,2.2-2.2-1-2.2-2.2-2.2"/>
  </g>
  <rect class="st0" x="87.4" y="8.9" width="3.9" height="14.9"/>
  <g>
    <path class="st0" d="M89.3,2.1c-1.2,0-2.2,1-2.2,2.2s1,2.2,2.2,2.2,2.2-1,2.2-2.2-1-2.2-2.2-2.2"/>
    <path class="st0" d="M17.9,8.4c-2.7,0-4.7,1.2-6.8,4.5l-.5-.5c.8-1,1.1-2.2,1.1-3.6h-2.8v14.9h3.9v-11c1.3-1.7,2.7-2.4,4.1-2.4,2,0,3.1,1.5,3.1,3.7v9.7h3.9v-9.7c0-3.4-2.2-5.6-5.9-5.6"/>
    <path class="st0" d="M77,8.4c-2.7,0-4.7,1.2-6.8,4.5l-.5-.5c.8-1,1.2-2.2,1.2-3.6h-2.8v14.9h3.9v-11c1.3-1.7,2.7-2.4,4.1-2.4,2,0,3.1,1.5,3.1,3.7v9.7h3.9v-9.7c0-3.4-2.2-5.6-5.9-5.6"/>
    <path class="st0" d="M48.4,8.4c-2.7,0-4.7,1.2-6.8,4.5l-.5-.5c.8-1,1.2-2.2,1.2-3.6h-2.8v14.9h3.9v-11c1.4-1.7,3.4-1.9,5.5-1.1l.8-3.1c-.4,0-.8,0-1.2,0"/>
    <path class="st0" d="M59.7,19.9c-.9,1.5-2.1,2.2-3.4,2.2s-2.9-1-2.9-2.6,1.5-3.3,3.3-3.3,2,.3,3,.9v2.7h0ZM56.7,8.4c-2.2,0-4.2.6-5.9,1.6l.8,1.8c1.3-.9,3-1.4,4.5-1.4,2.3,0,3.6,1.2,3.6,3.4v1.5c-1.3-.6-2.7-.9-4-.9-3.3,0-6.3,1.8-6.3,5s2.3,4.7,5.4,4.7,4.5-1.2,6.6-4.5l.5.5c-.8,1-1.2,2.2-1.2,3.6h2.8v-10.1c0-3.1-2.8-5.2-6.9-5.2"/>
    <path class="st0" d="M118.5,8.9v10.8c-.7,1.4-2.2,2.3-3.6,2.3s-3.1-1.4-3.1-3.4v-9.7h-3.9v9.7c0,3.4,2.3,5.6,5.9,5.6s3.7-.8,4.7-2.5v1.4c0,2.9-1.7,4.6-4.5,4.6s-3.1-.5-4.5-1.7l-.8,1.8c1.7,1.2,3.8,1.9,5.9,1.9,4.6,0,7.8-2.9,7.8-7v-13.8h-3.9,0Z"/>
  </g>
</svg>