<?xml version="1.0" encoding="UTF-8"?>
<svg id="Layer_1" xmlns="http://www.w3.org/2000/svg" version="1.1" viewBox="0 0 28 30.2">
  <!-- Generator: Adobe Illustrator 29.0.0, SVG Export Plug-In . SVG Version: 2.1.0 Build 186)  -->
  <defs>
    <style>
      .st0 {
        fill: #00ab18;
      }

      .st1 {
        fill: #fff;
      }
    </style>
  </defs>
  <rect class="st0" y="1.1" width="28" height="27.6" rx="3.6" ry="3.6"/>
  <g>
    <path class="st1" d="M9.2,11.8h-3.5c-.2,0-.3.1-.3.3v11.3c0,.2.1.3.3.3h3.5c.2,0,.3-.1.3-.3v-11.3c0-.2-.1-.3-.3-.3Z"/>
    <path class="st1" d="M7.4,6.2c-1.3,0-2.3,1-2.3,2.3s1,2.3,2.3,2.3,2.3-1,2.3-2.3c0-1.3-1-2.3-2.3-2.3Z"/>
    <path class="st1" d="M18.1,11.5c-1.4,0-2.5.6-3.1,1.3v-.7c0-.2-.1-.3-.3-.3h-3.4c-.2,0-.3.1-.3.3v11.3c0,.2.1.3.3.3h3.5c.2,0,.3-.1.3-.3v-5.6c0-1.9.5-2.6,1.8-2.6s1.5,1.2,1.5,2.7v5.5c0,.2.1.3.3.3h3.5c.2,0,.3-.1.3-.3v-6.2c0-2.8-.5-5.7-4.5-5.7Z"/>
  </g>
</svg>