<?xml version="1.0" encoding="UTF-8"?>
<svg id="Layer_1" xmlns="http://www.w3.org/2000/svg" version="1.1" viewBox="0 0 20.1 29.9">
  <!-- Generator: Adobe Illustrator 29.0.0, SVG Export Plug-In . SVG Version: 2.1.0 Build 186)  -->
  <defs>
    <style>
      .st0 {
        fill: #34a736;
      }
    </style>
  </defs>
  <path class="st0" d="M4.7,10.4H.6c-.2,0-.3,0-.3.3v12.9c0,.2,0,.3.3.3h4c.2,0,.3-.1.3-.3v-12.9c0-.2,0-.3-.3-.3h0Z"/>
  <path class="st0" d="M2.6,4c-1.4,0-2.6,1.2-2.6,2.6s1.2,2.6,2.6,2.6,2.6-1.2,2.6-2.6-1.1-2.6-2.6-2.6Z"/>
  <path class="st0" d="M14.9,10.1c-1.6,0-2.8.7-3.5,1.5v-.8c0-.2-.1-.3-.3-.3h-3.8c-.2,0-.3,0-.3.3v12.9c0,.2,0,.3.3.3h4c.2,0,.3-.1.3-.3v-6.4c0-2.2.6-3,2.1-3s1.8,1.3,1.8,3.1v6.3c0,.2.1.3.3.3h4c.2,0,.3-.1.3-.3v-7.1c0-3.2-.6-6.5-5.1-6.5h0Z"/>
</svg>